<svg width="31" height="31" xmlns="http://www.w3.org/2000/svg"><path d="M23.186 12.375c.42.972.63 2.014.63 3.125 0 4.48-3.676 8.125-8.192 8.125S7.432 19.979 7.432 15.5c0-1.111.21-2.153.63-3.125H.5v13.75c0 2.396 1.995 4.375 4.411 4.375h21.425c2.416 0 4.411-1.98 4.411-4.375v-13.75h-7.561zm-7.562 8.75c3.115 0 5.671-2.5 5.671-5.625 0-3.09-2.556-5.625-5.671-5.625-3.151 0-5.672 2.535-5.672 5.625 0 3.125 2.52 5.625 5.672 5.625zm15.123-16.25c0-2.396-1.995-4.375-4.41-4.375H4.91C2.495.5.5 2.48.5 4.875v5h9.207c1.506-1.528 3.606-2.5 5.917-2.5 2.31 0 4.41.972 5.916 2.5h9.207v-5z" fill="#1B305B" fill-rule="evenodd"/></svg>
