<svg width="321" height="321" xmlns="http://www.w3.org/2000/svg"><g fill="none" fill-rule="evenodd"><circle fill="#C6DDE5" cx="160.5" cy="160.5" r="160.5"/><circle stroke="#FFF" stroke-width="5" fill="#C6DDE5" cx="161" cy="161" r="140"/><path d="M161.018 72c25.398 0 46.523 17.431 51.982 40.987L178.82 125c0-9.658-8.07-17.667-17.802-17.667-.033 0-.013-35.333 0-35.333z" fill="#406F98"/><path d="M108 124.854C108 95.725 131.791 72 161 72c-.047 0-.001 35.236 0 35.236-9.658 0-17.667 7.986-17.667 17.618 0 .077-35.333.286-35.333 0z" fill="#C62127"/><path d="M161 142.924c29.209 0 53 24.033 53 53.538C214 225.967 190.209 250 161 250c-25.204 0-46.169-17.608-51.587-41.403l33.92-12.135c0 9.756 8.01 17.846 17.667 17.846 9.658 0 17.667-8.09 17.667-17.846s-8.01-17.846-17.667-17.846c-29.209 0-53-24.032-53-53.538 0-.165 35.333-.02 35.333 0 0 9.756 8.01 17.846 17.667 17.846z" fill="#1B305B"/></g></svg>