<svg width="1050" height="341" xmlns="http://www.w3.org/2000/svg"><g fill="none" fill-rule="evenodd"><path d="M1.47 340.025v-120.75h24.15v96.6h64.4v24.15H1.47zm280.37-60.375c0 33.327-27.048 60.375-60.375 60.375s-60.375-27.048-60.375-60.375 27.048-60.375 60.375-60.375 60.375 27.048 60.375 60.375zm-60.375-36.225c-19.964 0-36.225 16.261-36.225 36.225 0 19.964 16.261 36.225 36.225 36.225 19.964 0 36.225-16.261 36.225-36.225 0-19.964-16.261-36.225-36.225-36.225zm142.715 96.6v-120.75h6.44l74.06 70.518v-70.518h24.15v120.75h-6.601l-73.899-70.518v70.518h-24.15zm247.365 0H567.27v-120.75h44.275c33.327 0 60.375 27.048 60.375 60.375s-27.048 60.375-60.375 60.375zm-20.125-24.15h20.125c19.964 0 36.225-16.261 36.225-36.225 0-19.964-16.261-36.225-36.225-36.225H591.42v72.45zm269.1-36.225c0 33.327-27.048 60.375-60.375 60.375s-60.375-27.048-60.375-60.375 27.048-60.375 60.375-60.375 60.375 27.048 60.375 60.375zm-60.375-36.225c-19.964 0-36.225 16.261-36.225 36.225 0 19.964 16.261 36.225 36.225 36.225 19.964 0 36.225-16.261 36.225-36.225 0-19.964-16.261-36.225-36.225-36.225zm142.715 96.6v-120.75h6.44l74.06 70.518v-70.518h24.15v120.75h-6.601l-73.899-70.518v70.518h-24.15zM195.73 33.225V.675h141.05v32.55z" fill="#1B305B"/><path fill="#C6DDE5" d="M282.53 104v59.425h-32.55V104z"/><path fill="#92B3BC" d="M282.53 33.225V104h-32.55V33.225z"/><path d="M712.74 120.02v43.405h-32.55V120.02h32.55z" fill="#1B305B"/><path d="M767.99 60.35c0-14.973-12.152-27.125-27.125-27.125H713.74V60.35h-33.55V.675h59.675c32.984 0 59.675 26.691 59.675 59.675h-31.55z" fill="#406C96"/><path d="M713.74 60.35v27.125h27.125c14.973 0 27.125-12.152 27.125-27.125h31.55c0 21.483-11.284 40.145-28.21 50.778 2.445 4.063 4.279 7.027 5.501 8.892H680.19V60.35h33.55z" fill="#C6DDE5"/><path d="M777.177 120.02c6.32 9.64 15.8 24.108 28.439 43.405h-38.843l-28.427-43.405h38.831z" fill="#C62127"/><g><path d="M495.38 163.75c-44.919 0-81.38-36.456-81.38-81.375S450.461 1 495.38 1v162.75zm0-130.2c-26.908 0-48.83 21.917-48.83 48.825s21.922 48.825 48.83 48.825V33.55z" fill="#C62127"/><path d="M543.648 82.378c-.24-26.524-21.763-48.57-48.268-48.875V1c44.919 0 81.37 36.461 81.37 81.38H544c-.117 0-.235 0-.352-.002z" fill="#1B305B"/><path d="M495.38 131.25h.12c26.908 0 48.15-21.517 48.15-48.425 0-.148 0-.297-.002-.445h33.102c0 44.919-36.451 81.37-81.37 81.37v-32.5z" fill="#C6DDE5"/></g><g><path fill="#92B3BC" d="M950.998 105.052h32.55v58.373h-32.55z"/><path fill="#C62127" d="M950.998 105.052l16.275-35.371 43.4-69.006h38.409l-65.534 104.377z"/><path fill="#1B305B" d="M950.998 105.052L885.681.675h38.409l43.183 69.006z"/></g><g><path d="M49.565.675c23.219 0 42.532 16.058 47.523 37.758L65.84 49.5c0-8.897-7.378-16.275-16.275-16.275-.03 0-.012-32.55 0-32.55z" fill="#406F98"/><path d="M.74 49.5C.74 22.592 22.657.675 49.565.675c-.043 0-.001 32.55 0 32.55-8.897 0-16.275 7.378-16.275 16.275 0 .072-32.55.265-32.55 0z" fill="#C62127"/><path d="M49.565 65.775c26.908 0 48.825 21.917 48.825 48.825s-21.917 48.825-48.825 48.825c-23.219 0-42.532-16.058-47.523-37.758L33.29 114.6c0 8.897 7.378 16.275 16.275 16.275 8.897 0 16.275-7.378 16.275-16.275 0-8.897-7.378-16.275-16.275-16.275C22.657 98.325.74 76.408.74 49.5c0-.15 32.55-.02 32.55 0 0 8.897 7.378 16.275 16.275 16.275z" fill="#1B305B"/></g></g></svg>